<svg xmlns="http://www.w3.org/2000/svg" shape-rendering="geometricPrecision" text-rendering="geometricPrecision" image-rendering="optimizeQuality" fill-rule="evenodd" clip-rule="evenodd" viewBox="0 0 512 512"><path d="M145.228 0h221.545c39.962 0 76.279 16.334 102.59 42.638C495.666 68.942 512 105.262 512 145.224v221.549c0 39.965-16.334 76.278-42.637 102.589C443.052 495.666 406.739 512 366.773 512H145.228c-39.966 0-76.279-16.334-102.59-42.638C16.334 443.051 0 406.738 0 366.773V145.224c0-39.962 16.334-76.282 42.638-102.586C68.949 16.334 105.266 0 145.228 0zm57.61 222.248c-4.074-.173-6.969-1.531-8.64-4.07-4.539-6.801 1.656-13.521 5.946-18.25 12.196-13.374 42.058-45.523 48.077-52.605 4.556-5.035 11.05-5.035 15.603 0 6.216 7.262 37.588 40.877 49.175 53.883 4.019 4.527 8.993 10.705 4.804 16.972-1.71 2.539-4.57 3.897-8.648 4.07h-24.744v61.154c0 6.53-5.355 11.893-11.889 11.893h-33.043c-6.534 0-11.889-5.352-11.889-11.893v-61.154h-24.752zm-74.784 62.033c-1.361-5.622.933-10.038 4.596-12.656a12.836 12.836 0 014.405-1.999 12.844 12.844 0 014.816-.245c4.462.641 8.529 3.518 9.901 9.159a345.616 345.616 0 012.366 10.485l1.87 9.213c2.442 12.326 4.253 20.058 8.806 23.909 4.812 4.073 13.928 5.482 31.397 5.482h122.694c16.122 0 24.539-1.546 28.963-5.544 4.264-3.854 5.935-11.396 8.1-22.968l.119-.598c1.134-6.109 2.381-12.711 4.138-19.979 1.372-5.637 5.435-8.518 9.901-9.159a12.85 12.85 0 014.816.245 12.839 12.839 0 014.405 1.999c3.663 2.607 5.958 7.023 4.596 12.653-1.603 6.627-2.835 13.2-3.962 19.237l-.065.349c-3.162 16.91-5.788 28.541-14.49 36.717-8.615 8.096-22.115 11.525-46.521 11.525H196.211c-25.523 0-39.551-3.072-48.574-11.064-9.249-8.194-12.051-20.084-15.621-38.118l-1.894-9.408a321.191 321.191 0 00-2.068-9.235z"/></svg>